<svg xmlns="http://www.w3.org/2000/svg" width="330.0" height="940.0">
<polyline points="125.0,50.0 125.0,150.0" style="stroke:black;stroke-width:2" fill="none"/>
<polyline points="125.0,150.0 125.0,250.0" style="stroke:black;stroke-width:2" fill="none"/>
<polyline points="125.0,250.0 125.0,350.0" style="stroke:black;stroke-width:2" fill="none"/>
<polyline points="125.0,350.0 125.0,450.0" style="stroke:black;stroke-width:2" fill="none"/>
<polyline points="125.0,450.0 125.0,550.0" style="stroke:black;stroke-width:2" fill="none"/>
<polyline points="125.0,550.0 50.0,650.0" style="stroke:black;stroke-width:2" fill="none"/>
<polyline points="125.0,550.0 200.0,650.0" style="stroke:black;stroke-width:2" fill="none"/>
<polyline points="200.0,650.0 125.0,750.0" style="stroke:black;stroke-width:2" fill="none"/>
<polyline points="125.0,750.0 125.0,850.0" style="stroke:black;stroke-width:2" fill="none"/>
<rect x="85.0" y="230.0" width="80" height="40" fill="white" stroke="black"/><text x="86.0" y="254.0"  fill="black" font-size="10">test</text>
<rect x="85.0" y="330.0" width="80" height="40" fill="white" stroke="black"/><text x="86.0" y="354.0"  fill="black" font-size="10">test2</text>
<rect x="85.0" y="430.0" width="80" height="40" fill="white" stroke="black"/><text x="86.0" y="454.0"  fill="black" font-size="10">test3</text>
<rect x="85.0" y="30.0" width="80" height="40" fill="white" stroke="black"/><text x="86.0" y="54.0"  fill="black" font-size="10">start point</text>
<rect x="85.0" y="830.0" width="80" height="40" fill="white" stroke="black"/><text x="86.0" y="854.0"  fill="black" font-size="10">end point</text>
<rect x="85.0" y="130.0" width="80" height="40" fill="white" stroke="black"/><text x="86.0" y="154.0"  fill="black" font-size="10">pretest phase</text>
<rect x="85.0" y="530.0" width="80" height="40" fill="white" stroke="black"/><text x="86.0" y="554.0"  fill="black" font-size="10">ending test phase</text>
<rect x="10.0" y="630.0" width="80" height="40" fill="white" stroke="black"/><text x="11.0" y="654.0"  fill="black" font-size="10">ft1</text>
<rect x="160.0" y="630.0" width="80" height="40" fill="white" stroke="black"/><text x="161.0" y="654.0"  fill="black" font-size="10">ft2</text>
<rect x="85.0" y="730.0" width="80" height="40" fill="white" stroke="black"/><text x="86.0" y="754.0"  fill="black" font-size="10">merge feat</text>
</svg>