<svg xmlns="http://www.w3.org/2000/svg" width="780.0" height="1140.0">
<polyline points="275.0,50.0 350.0,150.0" style="stroke:rgb(144,113,148);stroke-width:2" fill="none"/>
<polyline points="275.0,50.0 200.0,150.0" style="stroke:rgb(144,113,148);stroke-width:2" fill="none"/>
<polyline points="350.0,150.0 312.5,250.0" style="stroke:rgb(189,108,54);stroke-width:2" fill="none"/>
<polyline points="200.0,150.0 87.5,250.0" style="stroke:rgb(104,131,245);stroke-width:2" fill="none"/>
<polyline points="200.0,150.0 312.5,250.0" style="stroke:rgb(104,131,245);stroke-width:2" fill="none"/>
<polyline points="350.0,150.0 462.5,250.0" style="stroke:rgb(189,108,54);stroke-width:2" fill="none"/>
<polyline points="87.5,250.0 87.5,350.0" style="stroke:rgb(233,150,199);stroke-width:2" fill="none"/>
<polyline points="87.5,250.0 237.5,350.0" style="stroke:rgb(233,150,199);stroke-width:2" fill="none"/>
<polyline points="312.5,250.0 237.5,350.0" style="stroke:rgb(70,216,109);stroke-width:2" fill="none"/>
<polyline points="312.5,250.0 462.5,350.0" style="stroke:rgb(70,216,109);stroke-width:2" fill="none"/>
<polyline points="462.5,250.0 462.5,350.0" style="stroke:rgb(142,204,101);stroke-width:2" fill="none"/>
<polyline points="312.5,250.0 425.0,350.0" style="stroke:rgb(70,216,109);stroke-width:2" fill="none"/>
<polyline points="425.0,350.0 275.0,450.0" style="stroke:rgb(70,216,109);stroke-width:2" fill="none"/>
<polyline points="87.5,350.0 275.0,450.0" style="stroke:rgb(104,215,252);stroke-width:2" fill="none"/>
<polyline points="237.5,350.0 275.0,450.0" style="stroke:rgb(112,90,170);stroke-width:2" fill="none"/>
<polyline points="462.5,350.0 275.0,450.0" style="stroke:rgb(221,151,255);stroke-width:2" fill="none"/>
<polyline points="87.5,350.0 215.0,450.0" style="stroke:rgb(104,215,252);stroke-width:2" fill="none"/>
<polyline points="215.0,450.0 200.0,550.0" style="stroke:rgb(104,215,252);stroke-width:2" fill="none"/>
<polyline points="462.5,350.0 455.0,450.0" style="stroke:rgb(221,151,255);stroke-width:2" fill="none"/>
<polyline points="455.0,450.0 350.0,550.0" style="stroke:rgb(221,151,255);stroke-width:2" fill="none"/>
<polyline points="275.0,450.0 200.0,550.0" style="stroke:rgb(200,232,242);stroke-width:2" fill="none"/>
<polyline points="275.0,450.0 350.0,550.0" style="stroke:rgb(200,232,242);stroke-width:2" fill="none"/>
<polyline points="200.0,550.0 200.0,650.0" style="stroke:rgb(70,254,76);stroke-width:2" fill="none"/>
<polyline points="350.0,550.0 200.0,650.0" style="stroke:rgb(244,216,235);stroke-width:2" fill="none"/>
<polyline points="350.0,550.0 350.0,650.0" style="stroke:rgb(244,216,235);stroke-width:2" fill="none"/>
<polyline points="200.0,650.0 200.0,750.0" style="stroke:rgb(110,200,205);stroke-width:2" fill="none"/>
<polyline points="200.0,650.0 350.0,750.0" style="stroke:rgb(110,200,205);stroke-width:2" fill="none"/>
<polyline points="350.0,650.0 350.0,750.0" style="stroke:rgb(188,244,187);stroke-width:2" fill="none"/>
<polyline points="200.0,750.0 200.0,850.0" style="stroke:rgb(116,212,185);stroke-width:2" fill="none"/>
<polyline points="350.0,750.0 200.0,850.0" style="stroke:rgb(193,237,67);stroke-width:2" fill="none"/>
<polyline points="350.0,750.0 350.0,850.0" style="stroke:rgb(193,237,67);stroke-width:2" fill="none"/>
<polyline points="200.0,850.0 275.0,950.0" style="stroke:rgb(159,208,138);stroke-width:2" fill="none"/>
<polyline points="350.0,850.0 275.0,950.0" style="stroke:rgb(112,165,211);stroke-width:2" fill="none"/>
<polyline points="275.0,950.0 275.0,1050.0" style="stroke:rgb(213,241,79);stroke-width:2" fill="none"/>
<polyline points="200.0,850.0 425.0,950.0" style="stroke:rgb(159,208,138);stroke-width:2" fill="none"/>
<polyline points="425.0,950.0 275.0,1050.0" style="stroke:rgb(159,208,138);stroke-width:2" fill="none"/>
<polyline points="275.0,50.0 500.0,150.0" style="stroke:rgb(144,113,148);stroke-width:2" fill="none"/>
<polyline points="500.0,150.0 612.5,250.0" style="stroke:rgb(144,113,148);stroke-width:2" fill="none"/>
<polyline points="612.5,250.0 650.0,350.0" style="stroke:rgb(144,113,148);stroke-width:2" fill="none"/>
<polyline points="650.0,350.0 275.0,450.0" style="stroke:rgb(144,113,148);stroke-width:2" fill="none"/>
<polyline points="200.0,150.0 237.5,250.0" style="stroke:rgb(104,131,245);stroke-width:2" fill="none"/>
<polyline points="237.5,250.0 387.5,350.0" style="stroke:rgb(104,131,245);stroke-width:2" fill="none"/>
<polyline points="387.5,350.0 425.0,450.0" style="stroke:rgb(104,131,245);stroke-width:2" fill="none"/>
<polyline points="425.0,450.0 200.0,550.0" style="stroke:rgb(104,131,245);stroke-width:2" fill="none"/>
<polyline points="462.5,250.0 612.5,350.0" style="stroke:rgb(142,204,101);stroke-width:2" fill="none"/>
<polyline points="612.5,350.0 485.0,450.0" style="stroke:rgb(142,204,101);stroke-width:2" fill="none"/>
<polyline points="485.0,450.0 500.0,550.0" style="stroke:rgb(142,204,101);stroke-width:2" fill="none"/>
<polyline points="500.0,550.0 200.0,650.0" style="stroke:rgb(142,204,101);stroke-width:2" fill="none"/>
<polyline points="237.5,350.0 245.0,450.0" style="stroke:rgb(112,90,170);stroke-width:2" fill="none"/>
<polyline points="245.0,450.0 125.0,550.0" style="stroke:rgb(112,90,170);stroke-width:2" fill="none"/>
<polyline points="125.0,550.0 200.0,650.0" style="stroke:rgb(112,90,170);stroke-width:2" fill="none"/>
<polyline points="200.0,750.0 50.0,850.0" style="stroke:rgb(116,212,185);stroke-width:2" fill="none"/>
<polyline points="50.0,850.0 275.0,950.0" style="stroke:rgb(116,212,185);stroke-width:2" fill="none"/>
<rect x="310.0" y="730.0" width="80" height="40" fill="white" stroke="black"/><text x="315.0" y="750.0" fill="black" font-size="10">Deploy prod</text>
<rect x="197.5" y="330.0" width="80" height="40" fill="white" stroke="black"/><text x="202.5" y="350.0" fill="black" font-size="10">Feature B</text>
<rect x="235.0" y="30.0" width="80" height="40" fill="white" stroke="black"/><text x="240.0" y="50.0" fill="black" font-size="10">Start</text>
<rect x="160.0" y="830.0" width="80" height="40" fill="white" stroke="black"/><text x="165.0" y="850.0" fill="black" font-size="10">Monitoring</text>
<rect x="47.5" y="230.0" width="80" height="40" fill="white" stroke="black"/><text x="52.5" y="250.0" fill="black" font-size="10">Clean data</text>
<rect x="310.0" y="530.0" width="80" height="40" fill="white" stroke="black"/><text x="315.0" y="550.0" fill="black" font-size="10">Train backup</text>
<rect x="235.0" y="430.0" width="80" height="40" fill="white" stroke="black"/><text x="240.0" y="450.0" fill="black" font-size="10">Merge features</text>
<rect x="160.0" y="630.0" width="80" height="40" fill="white" stroke="black"/><text x="165.0" y="650.0" fill="black" font-size="10">Evaluate</text>
<rect x="160.0" y="130.0" width="80" height="40" fill="white" stroke="black"/><text x="165.0" y="150.0" fill="black" font-size="10">Load data</text>
<rect x="310.0" y="830.0" width="80" height="40" fill="white" stroke="black"/><text x="315.0" y="850.0" fill="black" font-size="10">Alerts</text>
<rect x="47.5" y="330.0" width="80" height="40" fill="white" stroke="black"/><text x="52.5" y="350.0" fill="black" font-size="10">Feature A</text>
<rect x="422.5" y="230.0" width="80" height="40" fill="white" stroke="black"/><text x="427.5" y="250.0" fill="black" font-size="10">Normalize</text>
<rect x="235.0" y="1030.0" width="80" height="40" fill="white" stroke="black"/><text x="240.0" y="1050.0" fill="black" font-size="10">End</text>
<rect x="310.0" y="130.0" width="80" height="40" fill="white" stroke="black"/><text x="315.0" y="150.0" fill="black" font-size="10">Fetch API</text>
<rect x="422.5" y="330.0" width="80" height="40" fill="white" stroke="black"/><text x="427.5" y="350.0" fill="black" font-size="10">Feature C</text>
<rect x="160.0" y="530.0" width="80" height="40" fill="white" stroke="black"/><text x="165.0" y="550.0" fill="black" font-size="10">Train model</text>
<rect x="235.0" y="930.0" width="80" height="40" fill="white" stroke="black"/><text x="240.0" y="950.0" fill="black" font-size="10">Reporting</text>
<rect x="272.5" y="230.0" width="80" height="40" fill="white" stroke="black"/><text x="277.5" y="250.0" fill="black" font-size="10">Validate</text>
<rect x="160.0" y="730.0" width="80" height="40" fill="white" stroke="black"/><text x="165.0" y="750.0" fill="black" font-size="10">Deploy staging</text>
<rect x="310.0" y="630.0" width="80" height="40" fill="white" stroke="black"/><text x="315.0" y="650.0" fill="black" font-size="10">Metrics</text>
</svg>