<svg xmlns="http://www.w3.org/2000/svg" width="480.0" height="540.0">
<polyline points="200.0,50.0 125.0,150.0" style="stroke:rgb(179,178,144);stroke-width:2" fill="none"/>
<polyline points="200.0,50.0 275.0,150.0" style="stroke:rgb(179,178,144);stroke-width:2" fill="none"/>
<polyline points="125.0,150.0 200.0,250.0" style="stroke:rgb(245,62,129);stroke-width:2" fill="none"/>
<polyline points="275.0,150.0 200.0,250.0" style="stroke:rgb(76,160,184);stroke-width:2" fill="none"/>
<polyline points="125.0,150.0 50.0,250.0" style="stroke:rgb(245,62,129);stroke-width:2" fill="none"/>
<polyline points="275.0,150.0 350.0,250.0" style="stroke:rgb(76,160,184);stroke-width:2" fill="none"/>
<polyline points="200.0,250.0 200.0,350.0" style="stroke:rgb(132,238,101);stroke-width:2" fill="none"/>
<polyline points="50.0,250.0 200.0,350.0" style="stroke:rgb(192,129,57);stroke-width:2" fill="none"/>
<polyline points="350.0,250.0 200.0,350.0" style="stroke:rgb(174,140,167);stroke-width:2" fill="none"/>
<polyline points="200.0,350.0 200.0,450.0" style="stroke:rgb(171,114,94);stroke-width:2" fill="none"/>
<rect x="160.0" y="30.0" width="80" height="40" fill="white" stroke="black"/><text x="165.0" y="50.0" fill="black" font-size="10">Start</text>
<rect x="85.0" y="130.0" width="80" height="40" fill="white" stroke="black"/><text x="90.0" y="150.0" fill="black" font-size="10">A</text>
<rect x="235.0" y="130.0" width="80" height="40" fill="white" stroke="black"/><text x="240.0" y="150.0" fill="black" font-size="10">B</text>
<rect x="160.0" y="230.0" width="80" height="40" fill="white" stroke="black"/><text x="165.0" y="250.0" fill="black" font-size="10">C</text>
<rect x="10.0" y="230.0" width="80" height="40" fill="white" stroke="black"/><text x="15.0" y="250.0" fill="black" font-size="10">D</text>
<rect x="310.0" y="230.0" width="80" height="40" fill="white" stroke="black"/><text x="315.0" y="250.0" fill="black" font-size="10">E</text>
<rect x="160.0" y="330.0" width="80" height="40" fill="white" stroke="black"/><text x="165.0" y="350.0" fill="black" font-size="10">F</text>
<rect x="160.0" y="430.0" width="80" height="40" fill="white" stroke="black"/><text x="165.0" y="450.0" fill="black" font-size="10">End</text>
</svg>