<svg xmlns="http://www.w3.org/2000/svg" width="330.0" height="540.0">
<polyline points="125.0,50.0 50.0,150.0" style="stroke:rgb(123,229,143);stroke-width:2" fill="none"/>
<polyline points="125.0,50.0 200.0,150.0" style="stroke:rgb(123,229,143);stroke-width:2" fill="none"/>
<polyline points="50.0,150.0 125.0,250.0" style="stroke:rgb(114,94,157);stroke-width:2" fill="none"/>
<polyline points="200.0,150.0 125.0,250.0" style="stroke:rgb(225,192,157);stroke-width:2" fill="none"/>
<polyline points="125.0,250.0 125.0,350.0" style="stroke:rgb(177,148,226);stroke-width:2" fill="none"/>
<polyline points="125.0,350.0 125.0,450.0" style="stroke:rgb(237,115,217);stroke-width:2" fill="none"/>
<rect x="85.0" y="30.0" width="80" height="40" fill="white" stroke="black"/><text x="90.0" y="50.0" fill="black" font-size="10">Start</text>
<rect x="10.0" y="130.0" width="80" height="40" fill="white" stroke="black"/><text x="15.0" y="150.0" fill="black" font-size="10">A</text>
<rect x="160.0" y="130.0" width="80" height="40" fill="white" stroke="black"/><text x="165.0" y="150.0" fill="black" font-size="10">B</text>
<rect x="85.0" y="230.0" width="80" height="40" fill="white" stroke="black"/><text x="90.0" y="250.0" fill="black" font-size="10">C</text>
<rect x="85.0" y="330.0" width="80" height="40" fill="white" stroke="black"/><text x="90.0" y="350.0" fill="black" font-size="10">D</text>
<rect x="85.0" y="430.0" width="80" height="40" fill="white" stroke="black"/><text x="90.0" y="450.0" fill="black" font-size="10">End</text>
</svg>