<svg xmlns="http://www.w3.org/2000/svg" width="330.0" height="940.0">
<polyline points="125.0,50.0 125.0,150.0" style="stroke:rgb(73,131,101);stroke-width:2" fill="none"/>
<polyline points="125.0,150.0 125.0,250.0" style="stroke:rgb(128,135,75);stroke-width:2" fill="none"/>
<polyline points="125.0,250.0 125.0,350.0" style="stroke:rgb(65,64,229);stroke-width:2" fill="none"/>
<polyline points="125.0,350.0 125.0,450.0" style="stroke:rgb(115,105,86);stroke-width:2" fill="none"/>
<polyline points="125.0,450.0 125.0,550.0" style="stroke:rgb(233,180,141);stroke-width:2" fill="none"/>
<polyline points="125.0,550.0 50.0,650.0" style="stroke:rgb(131,240,125);stroke-width:2" fill="none"/>
<polyline points="125.0,550.0 200.0,650.0" style="stroke:rgb(131,240,125);stroke-width:2" fill="none"/>
<polyline points="200.0,650.0 125.0,750.0" style="stroke:rgb(219,187,107);stroke-width:2" fill="none"/>
<polyline points="125.0,750.0 125.0,850.0" style="stroke:rgb(216,171,165);stroke-width:2" fill="none"/>
<rect x="85.0" y="230.0" width="80" height="40" fill="white" stroke="black"/><text x="90.0" y="250.0" fill="black" font-size="10">test</text>
<rect x="85.0" y="330.0" width="80" height="40" fill="white" stroke="black"/><text x="90.0" y="350.0" fill="black" font-size="10">test2</text>
<rect x="85.0" y="430.0" width="80" height="40" fill="white" stroke="black"/><text x="90.0" y="450.0" fill="black" font-size="10">test3</text>
<rect x="85.0" y="30.0" width="80" height="40" fill="white" stroke="black"/><text x="90.0" y="50.0" fill="black" font-size="10">start point</text>
<rect x="85.0" y="830.0" width="80" height="40" fill="white" stroke="black"/><text x="90.0" y="850.0" fill="black" font-size="10">end point</text>
<rect x="85.0" y="130.0" width="80" height="40" fill="white" stroke="black"/><text x="90.0" y="150.0" fill="black" font-size="10">pretest phase</text>
<rect x="85.0" y="530.0" width="80" height="40" fill="white" stroke="black"/><text x="90.0" y="550.0" fill="black" font-size="10">ending test phase</text>
<rect x="10.0" y="630.0" width="80" height="40" fill="white" stroke="black"/><text x="15.0" y="650.0" fill="black" font-size="10">ft1</text>
<rect x="160.0" y="630.0" width="80" height="40" fill="white" stroke="black"/><text x="165.0" y="650.0" fill="black" font-size="10">ft2</text>
<rect x="85.0" y="730.0" width="80" height="40" fill="white" stroke="black"/><text x="90.0" y="750.0" fill="black" font-size="10">merge feat</text>
</svg>