<svg xmlns="http://www.w3.org/2000/svg" width="480.0" height="1440.0">
<polyline points="200.0,50.0 50.0,150.0" style="stroke:rgb(239,81,196);stroke-width:2" fill="none"/>
<polyline points="200.0,50.0 200.0,150.0" style="stroke:rgb(239,81,196);stroke-width:2" fill="none"/>
<polyline points="200.0,50.0 350.0,150.0" style="stroke:rgb(239,81,196);stroke-width:2" fill="none"/>
<polyline points="50.0,150.0 125.0,250.0" style="stroke:rgb(165,81,103);stroke-width:2" fill="none"/>
<polyline points="200.0,150.0 125.0,250.0" style="stroke:rgb(51,242,157);stroke-width:2" fill="none"/>
<polyline points="200.0,150.0 275.0,250.0" style="stroke:rgb(51,242,157);stroke-width:2" fill="none"/>
<polyline points="350.0,150.0 275.0,250.0" style="stroke:rgb(169,112,163);stroke-width:2" fill="none"/>
<polyline points="125.0,250.0 200.0,350.0" style="stroke:rgb(248,116,101);stroke-width:2" fill="none"/>
<polyline points="275.0,250.0 200.0,350.0" style="stroke:rgb(200,156,146);stroke-width:2" fill="none"/>
<polyline points="125.0,250.0 50.0,350.0" style="stroke:rgb(248,116,101);stroke-width:2" fill="none"/>
<polyline points="275.0,250.0 350.0,350.0" style="stroke:rgb(200,156,146);stroke-width:2" fill="none"/>
<polyline points="200.0,350.0 200.0,450.0" style="stroke:rgb(71,226,223);stroke-width:2" fill="none"/>
<polyline points="50.0,350.0 200.0,450.0" style="stroke:rgb(97,74,241);stroke-width:2" fill="none"/>
<polyline points="350.0,350.0 200.0,450.0" style="stroke:rgb(234,89,202);stroke-width:2" fill="none"/>
<polyline points="200.0,450.0 125.0,550.0" style="stroke:rgb(59,193,87);stroke-width:2" fill="none"/>
<polyline points="200.0,450.0 275.0,550.0" style="stroke:rgb(59,193,87);stroke-width:2" fill="none"/>
<polyline points="125.0,550.0 200.0,650.0" style="stroke:rgb(100,56,218);stroke-width:2" fill="none"/>
<polyline points="275.0,550.0 200.0,650.0" style="stroke:rgb(223,195,176);stroke-width:2" fill="none"/>
<polyline points="200.0,650.0 125.0,750.0" style="stroke:rgb(230,65,253);stroke-width:2" fill="none"/>
<polyline points="200.0,650.0 275.0,750.0" style="stroke:rgb(230,65,253);stroke-width:2" fill="none"/>
<polyline points="125.0,750.0 200.0,850.0" style="stroke:rgb(66,114,76);stroke-width:2" fill="none"/>
<polyline points="275.0,750.0 200.0,850.0" style="stroke:rgb(70,227,57);stroke-width:2" fill="none"/>
<polyline points="200.0,850.0 125.0,950.0" style="stroke:rgb(122,185,114);stroke-width:2" fill="none"/>
<polyline points="200.0,850.0 275.0,950.0" style="stroke:rgb(122,185,114);stroke-width:2" fill="none"/>
<polyline points="125.0,950.0 200.0,1050.0" style="stroke:rgb(181,168,57);stroke-width:2" fill="none"/>
<polyline points="275.0,950.0 200.0,1050.0" style="stroke:rgb(57,165,163);stroke-width:2" fill="none"/>
<polyline points="200.0,1050.0 200.0,1150.0" style="stroke:rgb(143,241,83);stroke-width:2" fill="none"/>
<polyline points="200.0,1150.0 200.0,1250.0" style="stroke:rgb(252,93,243);stroke-width:2" fill="none"/>
<polyline points="200.0,1250.0 200.0,1350.0" style="stroke:rgb(207,66,74);stroke-width:2" fill="none"/>
<rect x="160.0" y="30.0" width="80" height="40" fill="white" stroke="black"/><text x="165.0" y="50.0" fill="black" font-size="10">Start</text>
<rect x="10.0" y="130.0" width="80" height="40" fill="white" stroke="black"/><text x="15.0" y="150.0" fill="black" font-size="10">A</text>
<rect x="160.0" y="130.0" width="80" height="40" fill="white" stroke="black"/><text x="165.0" y="150.0" fill="black" font-size="10">B</text>
<rect x="310.0" y="130.0" width="80" height="40" fill="white" stroke="black"/><text x="315.0" y="150.0" fill="black" font-size="10">C</text>
<rect x="85.0" y="230.0" width="80" height="40" fill="white" stroke="black"/><text x="90.0" y="250.0" fill="black" font-size="10">D</text>
<rect x="235.0" y="230.0" width="80" height="40" fill="white" stroke="black"/><text x="240.0" y="250.0" fill="black" font-size="10">E</text>
<rect x="160.0" y="330.0" width="80" height="40" fill="white" stroke="black"/><text x="165.0" y="350.0" fill="black" font-size="10">F</text>
<rect x="10.0" y="330.0" width="80" height="40" fill="white" stroke="black"/><text x="15.0" y="350.0" fill="black" font-size="10">G</text>
<rect x="310.0" y="330.0" width="80" height="40" fill="white" stroke="black"/><text x="315.0" y="350.0" fill="black" font-size="10">H</text>
<rect x="160.0" y="430.0" width="80" height="40" fill="white" stroke="black"/><text x="165.0" y="450.0" fill="black" font-size="10">I</text>
<rect x="85.0" y="530.0" width="80" height="40" fill="white" stroke="black"/><text x="90.0" y="550.0" fill="black" font-size="10">J</text>
<rect x="235.0" y="530.0" width="80" height="40" fill="white" stroke="black"/><text x="240.0" y="550.0" fill="black" font-size="10">K</text>
<rect x="160.0" y="630.0" width="80" height="40" fill="white" stroke="black"/><text x="165.0" y="650.0" fill="black" font-size="10">L</text>
<rect x="85.0" y="730.0" width="80" height="40" fill="white" stroke="black"/><text x="90.0" y="750.0" fill="black" font-size="10">M</text>
<rect x="235.0" y="730.0" width="80" height="40" fill="white" stroke="black"/><text x="240.0" y="750.0" fill="black" font-size="10">N</text>
<rect x="160.0" y="830.0" width="80" height="40" fill="white" stroke="black"/><text x="165.0" y="850.0" fill="black" font-size="10">O</text>
<rect x="85.0" y="930.0" width="80" height="40" fill="white" stroke="black"/><text x="90.0" y="950.0" fill="black" font-size="10">P</text>
<rect x="235.0" y="930.0" width="80" height="40" fill="white" stroke="black"/><text x="240.0" y="950.0" fill="black" font-size="10">Q</text>
<rect x="160.0" y="1030.0" width="80" height="40" fill="white" stroke="black"/><text x="165.0" y="1050.0" fill="black" font-size="10">R</text>
<rect x="160.0" y="1130.0" width="80" height="40" fill="white" stroke="black"/><text x="165.0" y="1150.0" fill="black" font-size="10">S</text>
<rect x="160.0" y="1230.0" width="80" height="40" fill="white" stroke="black"/><text x="165.0" y="1250.0" fill="black" font-size="10">T</text>
<rect x="160.0" y="1330.0" width="80" height="40" fill="white" stroke="black"/><text x="165.0" y="1350.0" fill="black" font-size="10">End</text>
</svg>